<svg xmlns="http://www.w3.org/2000/svg" viewBox="0 0 96.06 34.05"><g data-name="Layer 2"><path d="M43 9.78h2v2.93a4.75 4.75 0 01-1.42.65 5.93 5.93 0 01-1.59.23 4.2 4.2 0 01-2-.46 3.44 3.44 0 01-1.38-1.29 3.56 3.56 0 01-.5-1.87 3.56 3.56 0 01.5-1.87A3.46 3.46 0 0140 6.81a4.34 4.34 0 012-.46 4.58 4.58 0 011.82.34 3.43 3.43 0 011.34 1L43.72 9a2 2 0 00-1.55-.76 1.63 1.63 0 00-1.23.46 1.77 1.77 0 00-.46 1.3 1.77 1.77 0 00.45 1.26 1.6 1.6 0 001.21.47 2.26 2.26 0 00.85-.17zm6.34-3.27a3.92 3.92 0 011.66.32 2.41 2.41 0 011.1.9 2.49 2.49 0 01.39 1.39 2.43 2.43 0 01-.39 1.38 2.37 2.37 0 01-1.1.91 4.08 4.08 0 01-1.67.32h-1v1.7H46V6.51zm-.14 3.42a1.06 1.06 0 00.71-.21.75.75 0 00.23-.6.75.75 0 00-.23-.6 1.06 1.06 0 00-.71-.21h-.85v1.62zm10.24 3.5l-.02-3.15-1.5 2.53h-1.03l-1.5-2.43v3.05h-2.13V6.51h1.92l2.25 3.69 2.2-3.69h1.92l.02 6.92h-2.13zm4.78-6.51a1.88 1.88 0 01.94.24 1.7 1.7 0 01.66.67 1.84 1.84 0 01.24.93 1.88 1.88 0 01-.24.94 1.79 1.79 0 01-1.61.92 1.88 1.88 0 01-.94-.24 1.84 1.84 0 01-.66-.67 1.81 1.81 0 01-.25-.94 1.87 1.87 0 01.91-1.6 1.82 1.82 0 01.95-.25zm0 3.41a1.53 1.53 0 00.79-.21 1.58 1.58 0 00.56-.56 1.67 1.67 0 00.2-.8 1.63 1.63 0 00-.2-.79 1.55 1.55 0 00-.57-.56 1.6 1.6 0 00-.79-.2 1.57 1.57 0 00-.8.21 1.5 1.5 0 00-.56.56 1.63 1.63 0 00-.2.79 1.6 1.6 0 00.2.79 1.5 1.5 0 001.35.77zm1-1.87a.71.71 0 01-.11.39.65.65 0 01-.31.25l.46.7h-.45l-.41-.62h-.46v.62h-.45V7.74h.86a.93.93 0 01.63.19.65.65 0 01.19.53zm-.9.36a.55.55 0 00.34-.09.34.34 0 00.12-.27.32.32 0 00-.12-.27.55.55 0 00-.34-.09h-.39v.72zM47.17 24.25l-.02-5.98-2.96 4.95h-.74l-2.96-4.87v5.9h-1.6v-9.01h1.38l3.58 5.97 3.51-5.97h1.38l.01 9.01h-1.58zm6.48-6.95A3.39 3.39 0 0156 18a2.85 2.85 0 01.8 2.2v4h-1.54v-.84a1.81 1.81 0 01-.84.69 3.24 3.24 0 01-1.32.24 3.19 3.19 0 01-1.35-.27 2 2 0 01-.89-.73 1.79 1.79 0 01-.32-1.06 1.82 1.82 0 01.69-1.49 3.44 3.44 0 012.17-.56h1.77v-.1a1.41 1.41 0 00-.43-1.08 1.85 1.85 0 00-1.28-.39 3.77 3.77 0 00-1.14.18 2.65 2.65 0 00-.94.51l-.63-1.17a3.86 3.86 0 011.3-.64 6 6 0 011.6-.19zm-.21 5.87a2.11 2.11 0 001.07-.28 1.55 1.55 0 00.66-.79v-.8h-1.66c-.92 0-1.39.3-1.39.91a.84.84 0 00.35.7 1.6 1.6 0 00.97.26zm9.3-5.87a2.87 2.87 0 012.09.76 3 3 0 01.78 2.25v3.94H64v-3.74a1.92 1.92 0 00-.42-1.35 1.57 1.57 0 00-1.21-.46 1.91 1.91 0 00-1.41.53 2.15 2.15 0 00-.51 1.54v3.48h-1.61v-6.88h1.53v.89a2.46 2.46 0 011-.72 3.62 3.62 0 011.37-.24zm11.71-2.6v9.55h-1.54v-.89a2.53 2.53 0 01-1 .73 3.24 3.24 0 01-1.3.25 3.64 3.64 0 01-1.78-.44 3.15 3.15 0 01-1.24-1.24 3.75 3.75 0 01-.45-1.85 3.66 3.66 0 01.47-1.81 3.21 3.21 0 011.24-1.24 3.63 3.63 0 011.78-.43 3.16 3.16 0 011.25.23 2.47 2.47 0 011 .69V14.7zM70.83 23a2.14 2.14 0 001-.26 1.91 1.91 0 00.73-.76 2.5 2.5 0 000-2.26 1.91 1.91 0 00-.73-.76 2.23 2.23 0 00-2.09 0 1.91 1.91 0 00-.73.76 2.5 2.5 0 000 2.26 1.91 1.91 0 00.73.76 2.15 2.15 0 001.09.26zm8.36-5.7a3.4 3.4 0 012.33.72 2.85 2.85 0 01.8 2.2v4H80.8v-.84a1.92 1.92 0 01-.84.69 3.31 3.31 0 01-1.32.24 3.13 3.13 0 01-1.35-.27 2.05 2.05 0 01-.9-.73 1.86 1.86 0 01-.31-1.06 1.82 1.82 0 01.69-1.49 3.41 3.41 0 012.16-.56h1.78v-.1a1.41 1.41 0 00-.43-1.1 1.85 1.85 0 00-1.28-.37 3.67 3.67 0 00-1.14.18 2.79 2.79 0 00-1 .51l-.63-1.17a4 4 0 011.3-.64 6.07 6.07 0 011.66-.21zM79 23.17a2.14 2.14 0 001.08-.28 1.55 1.55 0 00.66-.79v-.8h-1.69c-.93 0-1.39.3-1.39.91a.84.84 0 00.35.7 1.59 1.59 0 00.99.26zm9.51.7a1.87 1.87 0 01-.69.35 3 3 0 01-.85.12 2.44 2.44 0 01-1.76-.6A2.27 2.27 0 0184.6 22v-3.29h-1.14v-1.29h1.14v-1.57h1.61v1.57h1.84v1.29h-1.84V22a1.11 1.11 0 00.24.77.94.94 0 00.71.26 1.4 1.4 0 00.9-.28zm7.55-3.02a4.47 4.47 0 010 .47h-5.41a1.86 1.86 0 00.74 1.21 2.43 2.43 0 001.48.44 2.53 2.53 0 001.87-.74l.86 1a2.91 2.91 0 01-1.17.83 4.6 4.6 0 01-3.59-.16 3.18 3.18 0 01-1.33-1.26 3.48 3.48 0 01-.51-1.83 3.65 3.65 0 01.49-1.81 3.32 3.32 0 011.27-1.25 3.7 3.7 0 011.83-.45 3.52 3.52 0 011.79.44A3.17 3.17 0 0195.62 19a3.71 3.71 0 01.44 1.85zm-3.47-2.27a2 2 0 00-1.31.46 2 2 0 00-.65 1.22h3.9a1.89 1.89 0 00-1.94-1.68zm-52.18 13.9a4.57 4.57 0 01-1.29-.19 2.7 2.7 0 01-1-.51l.38-.78a3 3 0 00.87.46 3.16 3.16 0 001 .18 1.75 1.75 0 001-.21.64.64 0 00.32-.55.5.5 0 00-.18-.4 1.24 1.24 0 00-.45-.26c-.18-.06-.43-.12-.74-.2a8.44 8.44 0 01-1.07-.32 1.63 1.63 0 01-.7-.49 1.29 1.29 0 01-.3-.9 1.56 1.56 0 01.26-.87 1.79 1.79 0 01.79-.62 3.05 3.05 0 011.28-.23 4.06 4.06 0 011 .13 2.72 2.72 0 01.88.38l-.34.83a3.25 3.25 0 00-.79-.34 3.21 3.21 0 00-.8-.11 1.68 1.68 0 00-.94.21.65.65 0 00-.31.57.52.52 0 00.18.41 1.2 1.2 0 00.45.24c.18.06.42.13.74.21a7.21 7.21 0 011.05.31 1.85 1.85 0 01.71.49 1.32 1.32 0 01.29.89 1.48 1.48 0 01-.26.87 1.81 1.81 0 01-.79.62 3.25 3.25 0 01-1.24.18zM47.75 28l-2.06 4.76a2.33 2.33 0 01-.7 1 1.73 1.73 0 01-1 .29 1.81 1.81 0 01-.65-.11 1.41 1.41 0 01-.53-.29l.41-.76a1.15 1.15 0 00.35.22 1 1 0 00.41.08.67.67 0 00.45-.14 1.1 1.1 0 00.32-.47l.08-.17L42.91 28H44l1.38 3.26L46.76 28zm1.95 4.45a4.09 4.09 0 01-1.05-.14 2.73 2.73 0 01-.82-.35l.4-.79a2.73 2.73 0 00.71.32 3 3 0 00.82.12c.62 0 .93-.16.93-.49a.33.33 0 00-.24-.32 3.7 3.7 0 00-.75-.17 7.4 7.4 0 01-.89-.19 1.34 1.34 0 01-.59-.38 1 1 0 01-.25-.74 1.18 1.18 0 01.52-1 2.38 2.38 0 011.41-.37 4 4 0 01.91.1 2.44 2.44 0 01.74.28l-.39.78a2.47 2.47 0 00-1.26-.33 1.37 1.37 0 00-.69.14.4.4 0 00-.24.36.37.37 0 00.25.35 4 4 0 00.78.19 7 7 0 01.87.19 1.3 1.3 0 01.58.36 1 1 0 01.24.73 1.14 1.14 0 01-.53 1 2.53 2.53 0 01-1.46.35zm5.54-.3a1.28 1.28 0 01-.45.23 1.9 1.9 0 01-.54.07 1.59 1.59 0 01-1.13-.38 1.46 1.46 0 01-.39-1.1v-2.12H52V28h.73v-1h1v1h1.18v.83h-1.15v2.09a.66.66 0 00.16.49.55.55 0 00.45.17.93.93 0 00.58-.18zm4.84-1.93v.3H56.6a1.17 1.17 0 00.48.77 1.53 1.53 0 001 .29 1.61 1.61 0 001.2-.48l.55.63a1.86 1.86 0 01-.75.54 2.73 2.73 0 01-1 .18 2.63 2.63 0 01-1.28-.29 2.08 2.08 0 01-.86-.8 2.41 2.41 0 010-2.33 2 2 0 01.81-.8 2.5 2.5 0 012.32 0 2 2 0 01.79.8 2.45 2.45 0 01.22 1.19zm-2.23-1.46a1.24 1.24 0 00-.84.3 1.19 1.19 0 00-.41.78h2.5a1.24 1.24 0 00-.41-.78 1.2 1.2 0 00-.84-.3zm8.78-.82a1.82 1.82 0 011.32.48 2 2 0 01.48 1.45v2.52h-1V30a1.31 1.31 0 00-.25-.87 1 1 0 00-.74-.29 1.07 1.07 0 00-.83.34 1.39 1.39 0 00-.31 1v2.23h-1V30a1.31 1.31 0 00-.26-.87.94.94 0 00-.73-.29 1.05 1.05 0 00-.84.34 1.37 1.37 0 00-.31 1v2.23h-1V28h1v.56a1.49 1.49 0 01.62-.45 2 2 0 01.82-.16 2 2 0 01.88.18 1.48 1.48 0 01.61.55 1.81 1.81 0 01.7-.54 2.27 2.27 0 01.84-.2z" fill="#006bff"/><path d="M16.14 8.46l-1 1.17c-.89 1 .34 7.52.34 7.52l-1.29 3 .61-2.74c.27-2.74-1.1-2.33-1.1-2.33-1.43 0-1.5 1.85-1.5 1.85a14.36 14.36 0 01-1 5.74c-2.12 3.22 0 7.19 0 7.19h7v-.3c-.78-3.46.91-8.71.91-8.71.5-.91-.91-3.37-.91-3.37l-1.74-8.19zm-4.88 22.23a.67.67 0 00-.68.68v.95a.67.67 0 00.68.67h7.32a.67.67 0 00.68-.67v-.95a.67.67 0 00-.68-.68h-7.32zm3.1-17.75l-4 4v1l5.05-5zm5.2 0l-9.22 9.22v1l10.24-10.22zm5.19 0L10.34 27.36v1l15.43-15.42zm2.38 2.83l-14 14 .9-.17.42-.13 12.33-12.33zM3.12 8.46l1 1.17c.89 1-.34 7.52-.34 7.52l1.29 3-.61-2.73c-.28-2.74 1.09-2.33 1.09-2.33C7 15.1 7 17 7 17a14.36 14.36 0 001 5.74c2.12 3.22 0 7.19 0 7.19H1v-.3c.78-3.46-.91-8.71-.91-8.71-.48-.92.91-3.43.91-3.43l1.8-8.21zM8 30.69a.67.67 0 01.68.68v.94A.67.67 0 018 33H.68a.67.67 0 01-.68-.69v-.94a.67.67 0 01.68-.68H8zm-.28-20.54h3.94a3.64 3.64 0 01-3.94 0zm-1.65-3V7h3.32V3.51h.31a3.65 3.65 0 012.15.71v5.21H6.91a3.59 3.59 0 01-.84-2.32zm6.49 2.15V4.91a3.62 3.62 0 010 4.41zm-3.9-5.66v2.61H6.17a3.65 3.65 0 012.49-2.61z" fill-rule="evenodd" fill="#006bff"/><path fill="none" fill-rule="evenodd" d="M2.04 9.91V0H12.2v10.16H2.28l-.24-.25z"/><path fill="none" d="M5.22 3.18h3.8v3.81h-3.8z"/></g></svg>