<svg xmlns="http://www.w3.org/2000/svg" viewBox="0 0 98.45 35.58"><defs><style>.cls-4{fill:#006bff}</style></defs><g id="Layer_2" data-name="Layer 2"><g id="MouseOff"><path d="M87.46 8.47l-1 1.16c-.89 1 .34 7.53.34 7.53l-1.29 3 .61-2.74c.27-2.74-1.1-2.33-1.1-2.33-1.43 0-1.5 1.85-1.5 1.85a14.43 14.43 0 01-1 5.75c-2.12 3.21 0 7.18 0 7.18h7v-.3c-.78-3.46.91-8.71.91-8.71.5-.91-.91-3.37-.91-3.37l-1.74-8.2zm-4.88 22.22a.67.67 0 00-.68.68v.95a.68.68 0 00.68.68h7.32a.68.68 0 00.68-.68v-.95a.67.67 0 00-.68-.68h-7.32zM85.68 13l-4 4v1l5-5zm5.2 0l-9.22 9.22v1L91.9 13zm5.19 0L81.66 27.36v1L97.09 13zm2.38 2.82l-14 14 .9-.17.42-.13L98.1 17.14zM74.44 8.46l1 1.17c.89 1-.34 7.53-.34 7.53l1.29 3-.61-2.74c-.28-2.74 1.09-2.33 1.09-2.33 1.44 0 1.51 1.85 1.51 1.85a14.43 14.43 0 001 5.75c2.12 3.21 0 7.18 0 7.18h-7v-.3c.78-3.46-.91-8.71-.91-8.71-.5-.91.91-3.37.91-3.37l1.78-8.21zm4.88 22.23a.67.67 0 01.68.68v.95a.68.68 0 01-.68.68H72a.68.68 0 01-.68-.68v-.95a.67.67 0 01.68-.68h7.32zM79 10.15h4a3.64 3.64 0 01-3.94 0zm-1.65-3V7h3.32V3.51h.31a3.65 3.65 0 012.15.71v5.21h-4.9a3.59 3.59 0 01-.84-2.32zm6.53 2.15V4.91a3.62 3.62 0 010 4.41zM80 3.64v2.61h-2.51A3.66 3.66 0 0180 3.64z" fill-rule="evenodd" fill="#006bff"/><path fill="none" fill-rule="evenodd" d="M73.36 9.91V0h10.16v10.16H73.6l-.24-.25z"/><path fill="none" d="M76.54 3.18h3.8v3.81h-3.8z"/><path class="cls-4" d="M17.7 16.22a2.18 2.18 0 01-1.59-.57 2.6 2.6 0 01-.57-1.87 2.63 2.63 0 01.57-1.88 2.15 2.15 0 011.59-.58 2.12 2.12 0 011.58.58 2.63 2.63 0 01.57 1.88 3.63 3.63 0 01-.15 1.11 1.94 1.94 0 01-.43.76 1.65 1.65 0 01-.68.43 2.48 2.48 0 01-.89.14zm0-4a1.05 1.05 0 00-.93.42 2.05 2.05 0 00-.28 1.16 2 2 0 00.28 1.2 1.1 1.1 0 00.93.37 1.08 1.08 0 00.92-.37 2 2 0 00.29-1.19 2.05 2.05 0 00-.29-1.16 1 1 0 00-.92-.45zm.3-1.8a.1.1 0 01-.11-.11v-.84c0-.08 0-.12.11-.12h.77c.08 0 .11 0 .11.12v.82c0 .08 0 .11-.11.11zm-1.38 0a.1.1 0 01-.11-.11v-.84c0-.08 0-.12.11-.12h.77c.08 0 .11 0 .11.12v.82c0 .08 0 .11-.11.11zm3.97 7.97c-.08 0-.12 0-.12-.11v-.65a.11.11 0 01.12-.12h.26c.61 0 .91-.32.91-1v-4.87a.11.11 0 01.12-.12h.72c.07 0 .11 0 .11.12v4.89a1.91 1.91 0 01-.46 1.39 1.8 1.8 0 01-1.36.47zm4.6-2.39c0 .08 0 .12-.11.12h-.73c-.07 0-.11 0-.11-.12V8.58c0-.08 0-.12.11-.12h.73c.07 0 .11 0 .11.12zm5.68-1.79a4.1 4.1 0 01-.09.94 1.42 1.42 0 01-.3.59 1 1 0 01-.5.31 2.57 2.57 0 01-.73.1h-2.51a.11.11 0 01-.12-.12v-.65c0-.08 0-.11.12-.11h2.15a1.69 1.69 0 00.51-.06.55.55 0 00.3-.17.63.63 0 00.13-.31 2.15 2.15 0 000-.48v-.91q0-1.14-1.29-1.14h-1.27c-.08 0-.12 0-.12-.11v-.66c0-.07 0-.11.12-.11h1.66a2 2 0 011.4.49 1.94 1.94 0 01.54 1.52zM33.23 16c0 .08 0 .12-.11.12h-.72a.11.11 0 01-.12-.12V8.58a.11.11 0 01.12-.12h.72c.07 0 .11 0 .11.12zM32 18.75a1 1 0 01-.14-.31 1.14 1.14 0 01-.06-.39 1.24 1.24 0 01.06-.37.87.87 0 01.19-.37 1.41 1.41 0 01.35-.27 1.51 1.51 0 011.08 0 .86.86 0 01.36.29v.12l-.23.19c-.06 0-.1.05-.13 0a.88.88 0 00-.24-.19.6.6 0 00-.3-.07.56.56 0 00-.47.19.72.72 0 00-.15.45.74.74 0 00.13.44 1.11 1.11 0 00.25.27h1.17s.06 0 .06.08v.32c0 .05 0 .08-.06.08h-2.3a.07.07 0 01-.07-.08v-.32a.07.07 0 01.07-.08zm8.66-2.53a2.61 2.61 0 01-1-.19 1.72 1.72 0 01-.73-.61.65.65 0 01-.26.26l-.29.17a.82.82 0 00-.25.24.9.9 0 00-.1.46v1.84H37v-2.08a1.63 1.63 0 01.1-.58 1.34 1.34 0 01.26-.38 1.77 1.77 0 01.35-.26l.35-.2a1.27 1.27 0 00.28-.23.56.56 0 00.14-.35 2 2 0 010-.25 2.53 2.53 0 010-.28 2.58 2.58 0 01.58-1.88 2.44 2.44 0 013.16 0 2.63 2.63 0 01.58 1.88 3.34 3.34 0 01-.16 1.11 1.94 1.94 0 01-.43.76 1.68 1.68 0 01-.67.43 2.58 2.58 0 01-.88.14zm0-4a1 1 0 00-.92.42 2 2 0 00-.29 1.16 1.89 1.89 0 00.29 1.2 1.33 1.33 0 001.84 0 2 2 0 00.29-1.19 2.05 2.05 0 00-.29-1.16 1 1 0 00-.92-.45zm3.57-3.64c0-.08 0-.12.11-.12h.72c.08 0 .11 0 .11.12v6.09a.71.71 0 00.13.47.62.62 0 00.42.13h.49a.4.4 0 01.46.45.43.43 0 01-.11.35.62.62 0 01-.35.08h-.66a1.29 1.29 0 01-1-.35 1.62 1.62 0 01-.3-1.08z"/><path class="cls-4" d="M46.29 16.15a.57.57 0 01-.33-.08.37.37 0 01-.12-.32.51.51 0 01.11-.38.48.48 0 01.34-.1H47a.61.61 0 00.41-.13.66.66 0 00.13-.47V8.58c0-.08 0-.12.11-.12h.72a.11.11 0 01.12.12V12a6.87 6.87 0 011.23-.5 5 5 0 011.39-.2 3.32 3.32 0 011.31.22A2 2 0 0153.69 13a3.83 3.83 0 01.13 1 2.53 2.53 0 010 .28v.22a.66.66 0 00.27.57 1.29 1.29 0 00.74.2H55a.55.55 0 01.34.09.43.43 0 01.11.32c0 .2 0 .32-.11.38a.51.51 0 01-.34.09h-.24A1.36 1.36 0 0154 16a1 1 0 01-.44-.51A1.15 1.15 0 0153 16a2.36 2.36 0 01-.91.16h-3.77a.47.47 0 01-.39-.15 1.61 1.61 0 01-.75.15zm4.76-3.95a4 4 0 00-.69.06 5.2 5.2 0 00-.68.17 5.83 5.83 0 00-.63.22l-.55.25v1.82a2.51 2.51 0 01-.06.55h3.34a1.81 1.81 0 00.52-.06.65.65 0 00.32-.2.73.73 0 00.15-.4 3.8 3.8 0 000-.65 3.36 3.36 0 00-.08-.74 1.49 1.49 0 00-.29-.56 1.35 1.35 0 00-.54-.34 2.6 2.6 0 00-.81-.12zm-.33-1.8a.1.1 0 01-.11-.11v-.82c0-.08 0-.12.11-.12h.77c.07 0 .11 0 .11.12v.82a.1.1 0 01-.11.11z"/><path class="cls-4" d="M55 16.15a.63.63 0 01-.34-.08.4.4 0 01-.11-.32c0-.19 0-.32.11-.38a.46.46 0 01.34-.1h.71a.62.62 0 00.42-.13.72.72 0 00.12-.47v-3a.11.11 0 01.12-.12H57c.08 0 .11 0 .11.12v3.08a1.62 1.62 0 01-.3 1.08 1.29 1.29 0 01-1 .35zm1.34-5.75a.1.1 0 01-.11-.11v-.82c0-.08 0-.12.11-.12h.77c.08 0 .11 0 .11.12v.82c0 .08 0 .11-.11.11zM9.79 31.15a.86.86 0 00.63-.19 1 1 0 00.19-.69v-4.5c0-.11.05-.16.17-.16h1.07c.11 0 .17.05.17.16v4.58a2.33 2.33 0 01-.46 1.6 2 2 0 01-1.54.51H2A1.91 1.91 0 01.46 32 2.32 2.32 0 010 30.35v-3.5a.15.15 0 01.17-.17h1.07a.15.15 0 01.17.17v3.42a1 1 0 00.19.73.84.84 0 00.61.19zm-3.3-6.22c-.11 0-.17-.05-.17-.16v-1.23c0-.11.06-.16.17-.16h1.14a.14.14 0 01.16.16v1.23a.14.14 0 01-.16.16zm-2 0c-.11 0-.17-.05-.17-.16v-1.23c0-.11.06-.16.17-.16h1.09c.11 0 .17.05.17.16v1.23c0 .11-.06.16-.17.16zm9.65-3.7a.15.15 0 01.17-.17h1.07a.15.15 0 01.17.17v9a1 1 0 00.19.69.85.85 0 00.62.19h.73a.59.59 0 01.67.67c0 .28-.05.46-.15.53a1 1 0 01-.52.11h-1A1.92 1.92 0 0114.6 32a2.39 2.39 0 01-.46-1.6z"/><path class="cls-4" d="M21.4 25.3a4.38 4.38 0 011.48.23 2.88 2.88 0 011 .63 2.67 2.67 0 01.61 1 3.78 3.78 0 01.2 1.23 3.28 3.28 0 01-.4 1.6 3.36 3.36 0 01-1.09 1.22h2.58a.86.86 0 01.5.12.53.53 0 01.17.47.76.76 0 01-.16.57.71.71 0 01-.51.15h-2.2c-.4 0-.78 0-1.14-.05a2.26 2.26 0 01-1-.35 2.88 2.88 0 01-1.18.35c-.42 0-.79.05-1.12.05h-2a.59.59 0 01-.67-.67.66.66 0 01.16-.53 1 1 0 01.51-.11h2.47A3.48 3.48 0 0118.53 30a3.34 3.34 0 01-.39-1.59 3.53 3.53 0 01.2-1.23 2.43 2.43 0 01.61-1 2.72 2.72 0 011-.63 4.28 4.28 0 011.45-.25zm0 1.31a1.86 1.86 0 00-1.32.47 1.71 1.71 0 00-.52 1.35 2.25 2.25 0 00.53 1.57 3.33 3.33 0 001.31.91 3.26 3.26 0 001.31-.91 2.21 2.21 0 00.54-1.52 1.74 1.74 0 00-.52-1.35 1.88 1.88 0 00-1.33-.52zm-.57-2.67a.14.14 0 01-.16-.16v-1.23a.14.14 0 01.16-.16H22c.11 0 .17.05.17.16v1.23c0 .11-.06.16-.17.16z"/><path class="cls-4" d="M25.93 32.46a.84.84 0 01-.5-.12c-.12-.08-.17-.23-.17-.47a.76.76 0 01.16-.57.71.71 0 01.51-.15h1.14a.83.83 0 00.61-.19 1 1 0 00.19-.69v-4.5c0-.11.06-.16.17-.16h1.07c.11 0 .17.05.17.16V30a1 1 0 00.41.86 1.89 1.89 0 001.1.28H31a.73.73 0 01.5.15.58.58 0 01.17.47c0 .29-.05.48-.16.56a.8.8 0 01-.51.13h-.37a1.89 1.89 0 01-.94-.22 1.45 1.45 0 01-.62-.65 1.74 1.74 0 01-1.74.87zm2.9 3.12a.15.15 0 01-.17-.17v-1.22a.15.15 0 01.17-.17H30a.15.15 0 01.17.17v1.22a.15.15 0 01-.17.17zm-2 0c-.11 0-.16-.06-.16-.17v-1.22c0-.12.05-.17.16-.17h1.14a.15.15 0 01.17.17v1.22a.15.15 0 01-.17.17z"/><path class="cls-4" d="M31 32.46a.86.86 0 01-.5-.12.54.54 0 01-.17-.47.76.76 0 01.16-.57.74.74 0 01.51-.15h1.06a.83.83 0 00.61-.19 1 1 0 00.19-.69v-9a.15.15 0 01.17-.17h1.07a.15.15 0 01.17.17V30a1 1 0 00.41.86 1.89 1.89 0 001.1.28H36a.73.73 0 01.5.15.58.58 0 01.17.47c0 .29 0 .48-.16.56a.8.8 0 01-.51.13h-.4a1.89 1.89 0 01-.94-.22 1.45 1.45 0 01-.62-.65 1.74 1.74 0 01-1.74.87z"/><path class="cls-4" d="M38.91 25.61h1.5a3 3 0 012.07.72 2.87 2.87 0 01.81 2.26v1a2.35 2.35 0 010 .26v.27a.92.92 0 00.45.77 2 2 0 001.06.25h.2a.73.73 0 01.5.15.58.58 0 01.17.47.73.73 0 01-.16.56.8.8 0 01-.51.13h-.36a2.18 2.18 0 01-1-.24 1.4 1.4 0 01-.65-.71 1.59 1.59 0 01-.78.74 3.43 3.43 0 01-1.3.21H36a.59.59 0 01-.67-.67c0-.28 0-.45.16-.53a.92.92 0 01.51-.11h4.4a3.11 3.11 0 00.76-.07.86.86 0 00.43-.25.93.93 0 00.21-.46 4.72 4.72 0 000-.73v-1c0-1.12-.64-1.69-1.91-1.69h-2.7a.15.15 0 01-.17-.17v-.93a.25.25 0 01.06-.16l.09-.11 3.67-4.33a.18.18 0 01.22-.05l.8.67a.17.17 0 01.07.24z"/><path class="cls-4" d="M45.09 32.46a.87.87 0 01-.51-.12.54.54 0 01-.17-.47.81.81 0 01.16-.57.75.75 0 01.52-.15h1.13a.85.85 0 00.62-.19 1 1 0 00.19-.69v-4.5c0-.11.06-.16.17-.16h1.07c.11 0 .17.05.17.16V30a1 1 0 00.41.86 1.89 1.89 0 001.1.28h.2a.73.73 0 01.5.15.58.58 0 01.17.47.73.73 0 01-.16.56.8.8 0 01-.51.13h-.37a1.89 1.89 0 01-.94-.22 1.4 1.4 0 01-.62-.65 1.74 1.74 0 01-1.74.87zm3.06-8.52a.14.14 0 01-.16-.16v-1.23a.14.14 0 01.16-.16h1.14c.11 0 .17.05.17.16v1.23c0 .11-.06.16-.17.16zm-2 0c-.11 0-.17-.05-.17-.16v-1.23c0-.11.06-.16.17-.16h1.14a.14.14 0 01.16.16v1.23a.14.14 0 01-.16.16z"/><path class="cls-4" d="M50.15 32.46a.86.86 0 01-.5-.12c-.12-.08-.17-.23-.17-.47a.76.76 0 01.16-.57.71.71 0 01.51-.15h1.05a.85.85 0 00.62-.19 1 1 0 00.19-.69v-9a.15.15 0 01.17-.17h1.07a.15.15 0 01.17.17v9.12A2.33 2.33 0 0153 32a1.91 1.91 0 01-1.5.51zm7.02-.17c0 .11-.05.17-.16.17h-1.08c-.11 0-.16-.06-.16-.17V21.23c0-.11 0-.17.16-.17H57c.11 0 .16.06.16.17z"/></g></g></svg>